<svg width="143" height="48" viewBox="0 0 143 48" fill="none" xmlns="http://www.w3.org/2000/svg">
<path d="M5.841 19.391L13.365 32.855L20.889 19.391L22.605 35H25.41L22.605 10.745L13.365 27.476L4.125 10.745L1.32 35H4.125L5.841 19.391ZM29.1908 13.55C29.1908 14.034 29.3668 14.463 29.7188 14.837C30.0928 15.189 30.5218 15.365 31.0058 15.365C31.5118 15.365 31.9408 15.189 32.2928 14.837C32.6448 14.463 32.8208 14.034 32.8208 13.55C32.8208 13.044 32.6448 12.615 32.2928 12.263C31.9408 11.911 31.5118 11.735 31.0058 11.735C30.5218 11.735 30.0928 11.911 29.7188 12.263C29.3668 12.615 29.1908 13.044 29.1908 13.55ZM29.6858 19.82V35H32.3258V19.82H29.6858ZM47.4981 25.76V35H50.1381V25.43C50.1381 24.198 49.9181 23.142 49.4781 22.262C49.0601 21.382 48.4661 20.7 47.6961 20.216C46.9261 19.732 46.0021 19.49 44.9241 19.49C43.9341 19.49 43.0541 19.71 42.2841 20.15C41.5361 20.59 40.9091 21.272 40.4031 22.196V19.82H37.7631V35H40.4031V25.76C40.4031 25.012 40.5571 24.352 40.8651 23.78C41.1951 23.208 41.6461 22.768 42.2181 22.46C42.8121 22.13 43.4941 21.965 44.2641 21.965C44.9681 21.965 45.5621 22.108 46.0461 22.394C46.5301 22.68 46.8931 23.109 47.1351 23.681C47.3771 24.231 47.4981 24.924 47.4981 25.76ZM55.101 13.55C55.101 14.034 55.277 14.463 55.629 14.837C56.003 15.189 56.432 15.365 56.916 15.365C57.422 15.365 57.851 15.189 58.203 14.837C58.555 14.463 58.731 14.034 58.731 13.55C58.731 13.044 58.555 12.615 58.203 12.263C57.851 11.911 57.422 11.735 56.916 11.735C56.432 11.735 56.003 11.911 55.629 12.263C55.277 12.615 55.101 13.044 55.101 13.55ZM55.596 19.82V35H58.236V19.82H55.596ZM64.6962 28.004L62.4522 29.522C62.9582 30.534 63.6072 31.491 64.3992 32.393C65.2132 33.273 66.1482 33.988 67.2042 34.538C68.2822 35.066 69.4482 35.33 70.7022 35.33C71.6262 35.33 72.5062 35.176 73.3422 34.868C74.2002 34.56 74.9592 34.12 75.6192 33.548C76.3012 32.976 76.8292 32.283 77.2032 31.469C77.5992 30.655 77.7972 29.742 77.7972 28.73C77.7972 27.674 77.6102 26.772 77.2362 26.024C76.8622 25.254 76.3782 24.605 75.7842 24.077C75.2122 23.527 74.5852 23.076 73.9032 22.724C73.2212 22.372 72.5722 22.086 71.9562 21.866C70.9442 21.514 70.0862 21.162 69.3822 20.81C68.7002 20.458 68.1502 20.095 67.7322 19.721C67.3362 19.347 67.0502 18.951 66.8742 18.533C66.6982 18.115 66.6102 17.664 66.6102 17.18C66.6102 16.674 66.7312 16.201 66.9732 15.761C67.2372 15.321 67.6332 14.958 68.1612 14.672C68.6892 14.386 69.3712 14.243 70.2072 14.243C71.1092 14.243 71.8682 14.419 72.4842 14.771C73.1222 15.123 73.6612 15.574 74.1012 16.124C74.5412 16.674 74.9042 17.235 75.1902 17.807L77.5992 16.421C77.2252 15.607 76.7082 14.837 76.0482 14.111C75.3882 13.363 74.5852 12.758 73.6392 12.296C72.7152 11.812 71.6262 11.57 70.3722 11.57C69.0742 11.57 67.9192 11.834 66.9072 12.362C65.8952 12.868 65.1032 13.572 64.5312 14.474C63.9592 15.376 63.6732 16.399 63.6732 17.543C63.6732 18.599 63.8712 19.49 64.2672 20.216C64.6852 20.942 65.2132 21.558 65.8512 22.064C66.4892 22.548 67.1602 22.955 67.8642 23.285C68.5682 23.593 69.2062 23.846 69.7782 24.044C70.6582 24.352 71.4832 24.704 72.2532 25.1C73.0452 25.474 73.6832 25.969 74.1672 26.585C74.6512 27.201 74.8932 28.026 74.8932 29.06C74.8932 29.764 74.7172 30.391 74.3652 30.941C74.0352 31.491 73.5622 31.92 72.9462 32.228C72.3522 32.536 71.6372 32.69 70.8012 32.69C69.8772 32.69 69.0522 32.492 68.3262 32.096C67.6002 31.7 66.9402 31.15 66.3462 30.446C65.7742 29.742 65.2242 28.928 64.6962 28.004ZM79.4423 19.82V22.295H87.0323V19.82H79.4423ZM81.9173 14.54V35H84.5573V14.54H81.9173ZM88.3601 27.41C88.3601 28.928 88.7011 30.292 89.3831 31.502C90.0871 32.69 91.0331 33.625 92.2211 34.307C93.4091 34.989 94.7401 35.33 96.2141 35.33C97.7101 35.33 99.0411 34.989 100.207 34.307C101.395 33.625 102.33 32.69 103.012 31.502C103.716 30.292 104.068 28.928 104.068 27.41C104.068 25.87 103.716 24.506 103.012 23.318C102.33 22.13 101.395 21.195 100.207 20.513C99.0411 19.831 97.7101 19.49 96.2141 19.49C94.7401 19.49 93.4091 19.831 92.2211 20.513C91.0331 21.195 90.0871 22.13 89.3831 23.318C88.7011 24.506 88.3601 25.87 88.3601 27.41ZM91.0331 27.41C91.0331 26.354 91.2531 25.419 91.6931 24.605C92.1551 23.769 92.7711 23.12 93.5411 22.658C94.3331 22.196 95.2241 21.965 96.2141 21.965C97.2041 21.965 98.0841 22.196 98.8541 22.658C99.6461 23.12 100.262 23.769 100.702 24.605C101.164 25.419 101.395 26.354 101.395 27.41C101.395 28.466 101.164 29.401 100.702 30.215C100.262 31.029 99.6461 31.678 98.8541 32.162C98.0841 32.624 97.2041 32.855 96.2141 32.855C95.2241 32.855 94.3331 32.624 93.5411 32.162C92.7711 31.678 92.1551 31.029 91.6931 30.215C91.2531 29.401 91.0331 28.466 91.0331 27.41ZM110.335 19.82H107.695V35H110.335V19.82ZM114.922 22.724L116.374 20.546C115.978 20.128 115.538 19.853 115.054 19.721C114.592 19.567 114.086 19.49 113.536 19.49C112.832 19.49 112.139 19.765 111.457 20.315C110.775 20.865 110.214 21.613 109.774 22.559C109.356 23.483 109.147 24.55 109.147 25.76H110.335C110.335 25.034 110.401 24.385 110.533 23.813C110.687 23.241 110.951 22.79 111.325 22.46C111.699 22.13 112.216 21.965 112.876 21.965C113.316 21.965 113.679 22.031 113.965 22.163C114.251 22.273 114.57 22.46 114.922 22.724ZM124.397 35.33C126.025 35.33 127.433 35.011 128.621 34.373C129.831 33.713 130.832 32.745 131.624 31.469L129.479 30.116C128.929 31.04 128.258 31.733 127.466 32.195C126.674 32.635 125.761 32.855 124.727 32.855C123.693 32.855 122.813 32.635 122.087 32.195C121.361 31.755 120.811 31.117 120.437 30.281C120.063 29.445 119.876 28.433 119.876 27.245C119.876 26.387 119.986 25.617 120.206 24.935C120.426 24.253 120.745 23.681 121.163 23.219C121.581 22.757 122.087 22.405 122.681 22.163C123.297 21.921 123.979 21.8 124.727 21.8C125.585 21.8 126.333 21.987 126.971 22.361C127.609 22.735 128.104 23.252 128.456 23.912C128.83 24.572 129.017 25.353 129.017 26.255C129.017 26.409 128.984 26.607 128.918 26.849C128.852 27.069 128.786 27.234 128.72 27.344L129.776 25.826H118.886V28.07H131.855C131.855 28.026 131.855 27.927 131.855 27.773C131.877 27.597 131.888 27.432 131.888 27.278C131.888 25.672 131.602 24.286 131.03 23.12C130.458 21.954 129.633 21.063 128.555 20.447C127.499 19.809 126.223 19.49 124.727 19.49C123.605 19.49 122.582 19.688 121.658 20.084C120.734 20.458 119.942 20.997 119.282 21.701C118.622 22.383 118.105 23.208 117.731 24.176C117.379 25.144 117.203 26.222 117.203 27.41C117.203 28.972 117.5 30.347 118.094 31.535C118.71 32.723 119.557 33.658 120.635 34.34C121.735 35 122.989 35.33 124.397 35.33Z" fill="#272727"/>
<path d="M136.166 33.68C136.166 34.164 136.342 34.593 136.694 34.967C137.068 35.319 137.497 35.495 137.981 35.495C138.487 35.495 138.916 35.319 139.268 34.967C139.62 34.593 139.796 34.164 139.796 33.68C139.796 33.174 139.62 32.745 139.268 32.393C138.916 32.041 138.487 31.865 137.981 31.865C137.497 31.865 137.068 32.041 136.694 32.393C136.342 32.745 136.166 33.174 136.166 33.68Z" fill="#72AEC8"/>
</svg>
